<mxfile host="www.draw.io" modified="2020-01-04T07:07:12.678Z" agent="Mozilla/5.0 (Windows NT 10.0; Win64; x64) AppleWebKit/537.36 (KHTML, like Gecko) Chrome/79.0.3945.88 Safari/537.36" etag="eGMXChe7yzFdurf-G3t1" version="12.4.8" type="github">
  <diagram id="EAqPQv1zphD2tdkrLCZT" name="Page-1">
    <mxGraphModel dx="1902" dy="1037" grid="1" gridSize="10" guides="1" tooltips="1" connect="1" arrows="1" fold="1" page="1" pageScale="1" pageWidth="827" pageHeight="1169" math="0" shadow="0">
      <root>
        <mxCell id="0"/>
        <mxCell id="1" parent="0"/>
        <mxCell id="PiqDJ6yaUydBjH0UTQGq-6" value="&lt;p style=&quot;margin: 0px ; margin-top: 4px ; text-align: center&quot;&gt;&lt;i&gt;&amp;lt;&amp;lt;Interface&amp;gt;&amp;gt;&lt;/i&gt;&lt;br&gt;&lt;b&gt;DatabaseDriver&lt;/b&gt;&lt;/p&gt;&lt;p style=&quot;margin: 0px ; margin-left: 4px&quot;&gt;&lt;br&gt;&lt;/p&gt;&lt;hr size=&quot;1&quot;&gt;&lt;p style=&quot;margin: 0px ; margin-left: 4px&quot;&gt;+ connect()&lt;br&gt;+ query($request)&lt;/p&gt;&lt;p style=&quot;margin: 0px ; margin-left: 4px&quot;&gt;+ disconnect()&lt;/p&gt;" style="verticalAlign=top;align=left;overflow=fill;fontSize=12;fontFamily=Helvetica;html=1;" parent="1" vertex="1">
          <mxGeometry x="41" y="101" width="130" height="110" as="geometry"/>
        </mxCell>
        <mxCell id="PiqDJ6yaUydBjH0UTQGq-7" value="Route&#xa;{abstract}" style="swimlane;fontStyle=3;align=center;verticalAlign=top;childLayout=stackLayout;horizontal=1;startSize=48;horizontalStack=0;resizeParent=1;resizeParentMax=0;resizeLast=0;collapsible=1;marginBottom=0;" parent="1" vertex="1">
          <mxGeometry x="40.93" y="351" width="180" height="200" as="geometry">
            <mxRectangle x="40" y="370" width="90" height="48" as="alternateBounds"/>
          </mxGeometry>
        </mxCell>
        <mxCell id="PiqDJ6yaUydBjH0UTQGq-8" value="- $pass&#xa;- $callback" style="text;strokeColor=none;fillColor=none;align=left;verticalAlign=top;spacingLeft=4;spacingRight=4;overflow=hidden;rotatable=0;points=[[0,0.5],[1,0.5]];portConstraint=eastwest;" parent="PiqDJ6yaUydBjH0UTQGq-7" vertex="1">
          <mxGeometry y="48" width="180" height="42" as="geometry"/>
        </mxCell>
        <mxCell id="PiqDJ6yaUydBjH0UTQGq-9" value="" style="line;strokeWidth=1;fillColor=none;align=left;verticalAlign=middle;spacingTop=-1;spacingLeft=3;spacingRight=3;rotatable=0;labelPosition=right;points=[];portConstraint=eastwest;" parent="PiqDJ6yaUydBjH0UTQGq-7" vertex="1">
          <mxGeometry y="90" width="180" height="8" as="geometry"/>
        </mxCell>
        <mxCell id="PiqDJ6yaUydBjH0UTQGq-10" value="+ __construct($pass, $callback)&#xa;- prepareCallback($callback)&#xa;# getPath()&#xa;+ math($uri)&#xa;+run(Application)&#xa;abstract # getMethod()Â " style="text;strokeColor=none;fillColor=none;align=left;verticalAlign=top;spacingLeft=4;spacingRight=4;overflow=hidden;rotatable=0;points=[[0,0.5],[1,0.5]];portConstraint=eastwest;" parent="PiqDJ6yaUydBjH0UTQGq-7" vertex="1">
          <mxGeometry y="98" width="180" height="102" as="geometry"/>
        </mxCell>
        <mxCell id="PiqDJ6yaUydBjH0UTQGq-24" value="" style="endArrow=block;endSize=16;endFill=0;html=1;entryX=1.01;entryY=0.127;entryDx=0;entryDy=0;entryPerimeter=0;" parent="1" edge="1">
          <mxGeometry x="-1" y="-40" width="160" relative="1" as="geometry">
            <mxPoint x="240.93" y="428.9" as="sourcePoint"/>
            <mxPoint x="220.93" y="428.90399999999994" as="targetPoint"/>
            <Array as="points">
              <mxPoint x="261" y="429"/>
            </Array>
            <mxPoint x="40" y="40" as="offset"/>
          </mxGeometry>
        </mxCell>
        <mxCell id="PiqDJ6yaUydBjH0UTQGq-33" value="GetRoute" style="swimlane;fontStyle=1;childLayout=stackLayout;horizontal=1;startSize=26;fillColor=none;horizontalStack=0;resizeParent=1;resizeParentMax=0;resizeLast=0;collapsible=1;marginBottom=0;strokeWidth=1;" parent="1" vertex="1">
          <mxGeometry x="281" y="449" width="110" height="52" as="geometry"/>
        </mxCell>
        <mxCell id="PiqDJ6yaUydBjH0UTQGq-34" value="# getMethod()" style="text;strokeColor=none;fillColor=none;align=left;verticalAlign=top;spacingLeft=4;spacingRight=4;overflow=hidden;rotatable=0;points=[[0,0.5],[1,0.5]];portConstraint=eastwest;" parent="PiqDJ6yaUydBjH0UTQGq-33" vertex="1">
          <mxGeometry y="26" width="110" height="26" as="geometry"/>
        </mxCell>
        <mxCell id="PiqDJ6yaUydBjH0UTQGq-37" value="PostRoute" style="swimlane;fontStyle=1;childLayout=stackLayout;horizontal=1;startSize=26;fillColor=none;horizontalStack=0;resizeParent=1;resizeParentMax=0;resizeLast=0;collapsible=1;marginBottom=0;strokeWidth=1;" parent="1" vertex="1">
          <mxGeometry x="281" y="351" width="110" height="52" as="geometry"/>
        </mxCell>
        <mxCell id="PiqDJ6yaUydBjH0UTQGq-38" value="# getMethod()" style="text;strokeColor=none;fillColor=none;align=left;verticalAlign=top;spacingLeft=4;spacingRight=4;overflow=hidden;rotatable=0;points=[[0,0.5],[1,0.5]];portConstraint=eastwest;" parent="PiqDJ6yaUydBjH0UTQGq-37" vertex="1">
          <mxGeometry y="26" width="110" height="26" as="geometry"/>
        </mxCell>
        <mxCell id="PiqDJ6yaUydBjH0UTQGq-40" value="" style="strokeWidth=1;html=1;shape=mxgraph.flowchart.annotation_1;align=left;pointerEvents=1;" parent="1" vertex="1">
          <mxGeometry x="257" y="376" width="24" height="105" as="geometry"/>
        </mxCell>
        <mxCell id="PiqDJ6yaUydBjH0UTQGq-46" value="MySqlDriver" style="swimlane;fontStyle=1;childLayout=stackLayout;horizontal=1;startSize=26;fillColor=none;horizontalStack=0;resizeParent=1;resizeParentMax=0;resizeLast=0;collapsible=1;marginBottom=0;strokeWidth=1;" parent="1" vertex="1">
          <mxGeometry x="241" y="191" width="140" height="104" as="geometry"/>
        </mxCell>
        <mxCell id="PiqDJ6yaUydBjH0UTQGq-47" value="+ connect()" style="text;strokeColor=none;fillColor=none;align=left;verticalAlign=top;spacingLeft=4;spacingRight=4;overflow=hidden;rotatable=0;points=[[0,0.5],[1,0.5]];portConstraint=eastwest;" parent="PiqDJ6yaUydBjH0UTQGq-46" vertex="1">
          <mxGeometry y="26" width="140" height="26" as="geometry"/>
        </mxCell>
        <mxCell id="PiqDJ6yaUydBjH0UTQGq-48" value="+ query($request)" style="text;strokeColor=none;fillColor=none;align=left;verticalAlign=top;spacingLeft=4;spacingRight=4;overflow=hidden;rotatable=0;points=[[0,0.5],[1,0.5]];portConstraint=eastwest;" parent="PiqDJ6yaUydBjH0UTQGq-46" vertex="1">
          <mxGeometry y="52" width="140" height="26" as="geometry"/>
        </mxCell>
        <mxCell id="PiqDJ6yaUydBjH0UTQGq-49" value="+ disconnect()" style="text;strokeColor=none;fillColor=none;align=left;verticalAlign=top;spacingLeft=4;spacingRight=4;overflow=hidden;rotatable=0;points=[[0,0.5],[1,0.5]];portConstraint=eastwest;" parent="PiqDJ6yaUydBjH0UTQGq-46" vertex="1">
          <mxGeometry y="78" width="140" height="26" as="geometry"/>
        </mxCell>
        <mxCell id="PiqDJ6yaUydBjH0UTQGq-50" value="ArrayDriver" style="swimlane;fontStyle=1;childLayout=stackLayout;horizontal=1;startSize=26;fillColor=none;horizontalStack=0;resizeParent=1;resizeParentMax=0;resizeLast=0;collapsible=1;marginBottom=0;strokeWidth=1;" parent="1" vertex="1">
          <mxGeometry x="241" y="41" width="140" height="104" as="geometry"/>
        </mxCell>
        <mxCell id="PiqDJ6yaUydBjH0UTQGq-51" value="+ connect()" style="text;strokeColor=none;fillColor=none;align=left;verticalAlign=top;spacingLeft=4;spacingRight=4;overflow=hidden;rotatable=0;points=[[0,0.5],[1,0.5]];portConstraint=eastwest;" parent="PiqDJ6yaUydBjH0UTQGq-50" vertex="1">
          <mxGeometry y="26" width="140" height="26" as="geometry"/>
        </mxCell>
        <mxCell id="PiqDJ6yaUydBjH0UTQGq-52" value="+ query($request) : []" style="text;strokeColor=none;fillColor=none;align=left;verticalAlign=top;spacingLeft=4;spacingRight=4;overflow=hidden;rotatable=0;points=[[0,0.5],[1,0.5]];portConstraint=eastwest;" parent="PiqDJ6yaUydBjH0UTQGq-50" vertex="1">
          <mxGeometry y="52" width="140" height="26" as="geometry"/>
        </mxCell>
        <mxCell id="PiqDJ6yaUydBjH0UTQGq-53" value="+ disconnect()" style="text;strokeColor=none;fillColor=none;align=left;verticalAlign=top;spacingLeft=4;spacingRight=4;overflow=hidden;rotatable=0;points=[[0,0.5],[1,0.5]];portConstraint=eastwest;" parent="PiqDJ6yaUydBjH0UTQGq-50" vertex="1">
          <mxGeometry y="78" width="140" height="26" as="geometry"/>
        </mxCell>
        <mxCell id="PiqDJ6yaUydBjH0UTQGq-55" value="" style="endArrow=none;dashed=1;html=1;" parent="1" edge="1">
          <mxGeometry width="50" height="50" relative="1" as="geometry">
            <mxPoint x="201" y="81" as="sourcePoint"/>
            <mxPoint x="241" y="81" as="targetPoint"/>
          </mxGeometry>
        </mxCell>
        <mxCell id="PiqDJ6yaUydBjH0UTQGq-57" value="" style="endArrow=none;dashed=1;html=1;" parent="1" edge="1">
          <mxGeometry width="50" height="50" relative="1" as="geometry">
            <mxPoint x="201" y="221" as="sourcePoint"/>
            <mxPoint x="241" y="221" as="targetPoint"/>
          </mxGeometry>
        </mxCell>
        <mxCell id="PiqDJ6yaUydBjH0UTQGq-59" value="" style="endArrow=none;dashed=1;html=1;" parent="1" edge="1">
          <mxGeometry width="50" height="50" relative="1" as="geometry">
            <mxPoint x="201" y="221" as="sourcePoint"/>
            <mxPoint x="201" y="81" as="targetPoint"/>
          </mxGeometry>
        </mxCell>
        <mxCell id="PiqDJ6yaUydBjH0UTQGq-60" value="" style="endArrow=block;endSize=16;endFill=0;html=1;entryX=1.01;entryY=0.127;entryDx=0;entryDy=0;entryPerimeter=0;" parent="1" edge="1">
          <mxGeometry x="-1" y="-40" width="160" relative="1" as="geometry">
            <mxPoint x="191.00000000000028" y="155.5800000000001" as="sourcePoint"/>
            <mxPoint x="171.00000000000028" y="155.584" as="targetPoint"/>
            <Array as="points">
              <mxPoint x="201" y="156"/>
            </Array>
            <mxPoint x="40" y="40" as="offset"/>
          </mxGeometry>
        </mxCell>
        <mxCell id="PiqDJ6yaUydBjH0UTQGq-61" value="DataBase" style="swimlane;fontStyle=1;align=center;verticalAlign=top;childLayout=stackLayout;horizontal=1;startSize=26;horizontalStack=0;resizeParent=1;resizeParentMax=0;resizeLast=0;collapsible=1;marginBottom=0;strokeWidth=1;" parent="1" vertex="1">
          <mxGeometry x="481" y="111" width="180" height="120" as="geometry"/>
        </mxCell>
        <mxCell id="PiqDJ6yaUydBjH0UTQGq-62" value="- $driver" style="text;strokeColor=none;fillColor=none;align=left;verticalAlign=top;spacingLeft=4;spacingRight=4;overflow=hidden;rotatable=0;points=[[0,0.5],[1,0.5]];portConstraint=eastwest;" parent="PiqDJ6yaUydBjH0UTQGq-61" vertex="1">
          <mxGeometry y="26" width="180" height="26" as="geometry"/>
        </mxCell>
        <mxCell id="PiqDJ6yaUydBjH0UTQGq-63" value="" style="line;strokeWidth=1;fillColor=none;align=left;verticalAlign=middle;spacingTop=-1;spacingLeft=3;spacingRight=3;rotatable=0;labelPosition=right;points=[];portConstraint=eastwest;" parent="PiqDJ6yaUydBjH0UTQGq-61" vertex="1">
          <mxGeometry y="52" width="180" height="8" as="geometry"/>
        </mxCell>
        <mxCell id="PiqDJ6yaUydBjH0UTQGq-64" value="+ __construct(DatabaseDriver)&#xa;&#xa;" style="text;strokeColor=none;fillColor=none;align=left;verticalAlign=top;spacingLeft=4;spacingRight=4;overflow=hidden;rotatable=0;points=[[0,0.5],[1,0.5]];portConstraint=eastwest;" parent="PiqDJ6yaUydBjH0UTQGq-61" vertex="1">
          <mxGeometry y="60" width="180" height="30" as="geometry"/>
        </mxCell>
        <mxCell id="PiqDJ6yaUydBjH0UTQGq-72" value="&lt;span style=&quot;white-space: nowrap&quot;&gt;+ query($sql)&lt;/span&gt;" style="text;html=1;strokeColor=none;fillColor=none;align=left;verticalAlign=top;spacingLeft=4;spacingRight=4;whiteSpace=wrap;overflow=hidden;rotatable=0;points=[[0,0.5],[1,0.5]];portConstraint=eastwest;" parent="PiqDJ6yaUydBjH0UTQGq-61" vertex="1">
          <mxGeometry y="90" width="180" height="30" as="geometry"/>
        </mxCell>
        <mxCell id="PiqDJ6yaUydBjH0UTQGq-66" value="" style="endArrow=diamondThin;endFill=0;endSize=24;html=1;" parent="1" edge="1">
          <mxGeometry width="160" relative="1" as="geometry">
            <mxPoint x="431" y="178.88" as="sourcePoint"/>
            <mxPoint x="481" y="178.88" as="targetPoint"/>
          </mxGeometry>
        </mxCell>
        <mxCell id="PiqDJ6yaUydBjH0UTQGq-67" value="" style="strokeWidth=1;html=1;shape=mxgraph.flowchart.annotation_1;align=left;pointerEvents=1;rotation=-180;" parent="1" vertex="1">
          <mxGeometry x="380.83" y="111" width="49.83" height="136" as="geometry"/>
        </mxCell>
        <mxCell id="PiqDJ6yaUydBjH0UTQGq-68" value="Router" style="swimlane;fontStyle=1;align=center;verticalAlign=top;childLayout=stackLayout;horizontal=1;startSize=26;horizontalStack=0;resizeParent=1;resizeParentMax=0;resizeLast=0;collapsible=1;marginBottom=0;strokeWidth=1;" parent="1" vertex="1">
          <mxGeometry x="481" y="351" width="210" height="150" as="geometry"/>
        </mxCell>
        <mxCell id="PiqDJ6yaUydBjH0UTQGq-69" value="- $routes : []" style="text;strokeColor=none;fillColor=none;align=left;verticalAlign=top;spacingLeft=4;spacingRight=4;overflow=hidden;rotatable=0;points=[[0,0.5],[1,0.5]];portConstraint=eastwest;" parent="PiqDJ6yaUydBjH0UTQGq-68" vertex="1">
          <mxGeometry y="26" width="210" height="26" as="geometry"/>
        </mxCell>
        <mxCell id="PiqDJ6yaUydBjH0UTQGq-70" value="" style="line;strokeWidth=1;fillColor=none;align=left;verticalAlign=middle;spacingTop=-1;spacingLeft=3;spacingRight=3;rotatable=0;labelPosition=right;points=[];portConstraint=eastwest;" parent="PiqDJ6yaUydBjH0UTQGq-68" vertex="1">
          <mxGeometry y="52" width="210" height="8" as="geometry"/>
        </mxCell>
        <mxCell id="PiqDJ6yaUydBjH0UTQGq-73" value="+ get($path, $callback): GetRoute" style="text;strokeColor=none;fillColor=none;align=left;verticalAlign=top;spacingLeft=4;spacingRight=4;overflow=hidden;rotatable=0;points=[[0,0.5],[1,0.5]];portConstraint=eastwest;" parent="PiqDJ6yaUydBjH0UTQGq-68" vertex="1">
          <mxGeometry y="60" width="210" height="30" as="geometry"/>
        </mxCell>
        <mxCell id="PiqDJ6yaUydBjH0UTQGq-74" value="+ post($path, $callback): PostRoute" style="text;strokeColor=none;fillColor=none;align=left;verticalAlign=top;spacingLeft=4;spacingRight=4;overflow=hidden;rotatable=0;points=[[0,0.5],[1,0.5]];portConstraint=eastwest;" parent="PiqDJ6yaUydBjH0UTQGq-68" vertex="1">
          <mxGeometry y="90" width="210" height="30" as="geometry"/>
        </mxCell>
        <mxCell id="PiqDJ6yaUydBjH0UTQGq-71" value="+ dispatch(Application)" style="text;strokeColor=none;fillColor=none;align=left;verticalAlign=top;spacingLeft=4;spacingRight=4;overflow=hidden;rotatable=0;points=[[0,0.5],[1,0.5]];portConstraint=eastwest;" parent="PiqDJ6yaUydBjH0UTQGq-68" vertex="1">
          <mxGeometry y="120" width="210" height="30" as="geometry"/>
        </mxCell>
        <mxCell id="PiqDJ6yaUydBjH0UTQGq-75" value="" style="line;strokeWidth=1;fillColor=none;align=left;verticalAlign=middle;spacingTop=-1;spacingLeft=3;spacingRight=3;rotatable=0;labelPosition=right;points=[];portConstraint=eastwest;" parent="1" vertex="1">
          <mxGeometry x="391" y="376" width="90" height="8" as="geometry"/>
        </mxCell>
        <mxCell id="PiqDJ6yaUydBjH0UTQGq-76" value="0..*" style="text;html=1;resizable=0;autosize=1;align=center;verticalAlign=middle;points=[];fillColor=none;strokeColor=none;rounded=0;" parent="1" vertex="1">
          <mxGeometry x="396" y="356" width="30" height="20" as="geometry"/>
        </mxCell>
        <mxCell id="PiqDJ6yaUydBjH0UTQGq-77" value="1" style="text;html=1;resizable=0;autosize=1;align=center;verticalAlign=middle;points=[];fillColor=none;strokeColor=none;rounded=0;" parent="1" vertex="1">
          <mxGeometry x="451" y="356" width="20" height="20" as="geometry"/>
        </mxCell>
        <mxCell id="PiqDJ6yaUydBjH0UTQGq-78" value="0..*" style="text;html=1;resizable=0;autosize=1;align=center;verticalAlign=middle;points=[];fillColor=none;strokeColor=none;rounded=0;" parent="1" vertex="1">
          <mxGeometry x="398.5" y="449" width="30" height="20" as="geometry"/>
        </mxCell>
        <mxCell id="PiqDJ6yaUydBjH0UTQGq-79" value="1" style="text;html=1;resizable=0;autosize=1;align=center;verticalAlign=middle;points=[];fillColor=none;strokeColor=none;rounded=0;" parent="1" vertex="1">
          <mxGeometry x="453.5" y="449" width="20" height="20" as="geometry"/>
        </mxCell>
        <mxCell id="PiqDJ6yaUydBjH0UTQGq-80" value="" style="line;strokeWidth=1;fillColor=none;align=left;verticalAlign=middle;spacingTop=-1;spacingLeft=3;spacingRight=3;rotatable=0;labelPosition=right;points=[];portConstraint=eastwest;" parent="1" vertex="1">
          <mxGeometry x="391" y="469" width="90" height="8" as="geometry"/>
        </mxCell>
        <mxCell id="PiqDJ6yaUydBjH0UTQGq-81" value="Application" style="swimlane;fontStyle=1;align=center;verticalAlign=top;childLayout=stackLayout;horizontal=1;startSize=26;horizontalStack=0;resizeParent=1;resizeParentMax=0;resizeLast=0;collapsible=1;marginBottom=0;strokeWidth=1;" parent="1" vertex="1">
          <mxGeometry x="481" y="540" width="220" height="164" as="geometry"/>
        </mxCell>
        <mxCell id="PiqDJ6yaUydBjH0UTQGq-82" value="- $router: Router" style="text;strokeColor=none;fillColor=none;align=left;verticalAlign=top;spacingLeft=4;spacingRight=4;overflow=hidden;rotatable=0;points=[[0,0.5],[1,0.5]];portConstraint=eastwest;" parent="PiqDJ6yaUydBjH0UTQGq-81" vertex="1">
          <mxGeometry y="26" width="220" height="26" as="geometry"/>
        </mxCell>
        <mxCell id="PiqDJ6yaUydBjH0UTQGq-85" value="- $db: DataBase" style="text;strokeColor=none;fillColor=none;align=left;verticalAlign=top;spacingLeft=4;spacingRight=4;overflow=hidden;rotatable=0;points=[[0,0.5],[1,0.5]];portConstraint=eastwest;" parent="PiqDJ6yaUydBjH0UTQGq-81" vertex="1">
          <mxGeometry y="52" width="220" height="26" as="geometry"/>
        </mxCell>
        <mxCell id="PiqDJ6yaUydBjH0UTQGq-83" value="" style="line;strokeWidth=1;fillColor=none;align=left;verticalAlign=middle;spacingTop=-1;spacingLeft=3;spacingRight=3;rotatable=0;labelPosition=right;points=[];portConstraint=eastwest;" parent="PiqDJ6yaUydBjH0UTQGq-81" vertex="1">
          <mxGeometry y="78" width="220" height="8" as="geometry"/>
        </mxCell>
        <mxCell id="PiqDJ6yaUydBjH0UTQGq-84" value="+ __construct($router, $dataBase)" style="text;strokeColor=none;fillColor=none;align=left;verticalAlign=top;spacingLeft=4;spacingRight=4;overflow=hidden;rotatable=0;points=[[0,0.5],[1,0.5]];portConstraint=eastwest;" parent="PiqDJ6yaUydBjH0UTQGq-81" vertex="1">
          <mxGeometry y="86" width="220" height="26" as="geometry"/>
        </mxCell>
        <mxCell id="PiqDJ6yaUydBjH0UTQGq-87" value="+ Run() : Router" style="text;strokeColor=none;fillColor=none;align=left;verticalAlign=top;spacingLeft=4;spacingRight=4;overflow=hidden;rotatable=0;points=[[0,0.5],[1,0.5]];portConstraint=eastwest;" parent="PiqDJ6yaUydBjH0UTQGq-81" vertex="1">
          <mxGeometry y="112" width="220" height="26" as="geometry"/>
        </mxCell>
        <mxCell id="PiqDJ6yaUydBjH0UTQGq-86" value="+ getDataBase() : DataBase" style="text;strokeColor=none;fillColor=none;align=left;verticalAlign=top;spacingLeft=4;spacingRight=4;overflow=hidden;rotatable=0;points=[[0,0.5],[1,0.5]];portConstraint=eastwest;" parent="PiqDJ6yaUydBjH0UTQGq-81" vertex="1">
          <mxGeometry y="138" width="220" height="26" as="geometry"/>
        </mxCell>
        <mxCell id="PiqDJ6yaUydBjH0UTQGq-88" value="dispatch" style="html=1;verticalAlign=bottom;endArrow=block;exitX=0.531;exitY=0.986;exitDx=0;exitDy=0;exitPerimeter=0;" parent="1" source="PiqDJ6yaUydBjH0UTQGq-71" target="PiqDJ6yaUydBjH0UTQGq-81" edge="1">
          <mxGeometry width="80" relative="1" as="geometry">
            <mxPoint x="321" y="591" as="sourcePoint"/>
            <mxPoint x="401" y="591" as="targetPoint"/>
          </mxGeometry>
        </mxCell>
        <mxCell id="PiqDJ6yaUydBjH0UTQGq-89" value="" style="endArrow=open;endFill=1;endSize=12;html=1;comic=1;" parent="1" edge="1">
          <mxGeometry width="160" relative="1" as="geometry">
            <mxPoint x="661" y="170" as="sourcePoint"/>
            <mxPoint x="699" y="622" as="targetPoint"/>
            <Array as="points">
              <mxPoint x="759" y="170"/>
              <mxPoint x="759" y="421"/>
              <mxPoint x="759" y="622"/>
            </Array>
          </mxGeometry>
        </mxCell>
      </root>
    </mxGraphModel>
  </diagram>
</mxfile>
